
<svg xmlns="http://www.w3.org/2000/svg" width="600" height="400" viewBox="0 0 600 400">
  <rect width="100%" height="100%" fill="#f0f4f8"/>
  <g transform="translate(300,200)">
    <g fill="#4a90e2">
      <circle r="160" opacity="0.1"/>
      <circle r="135" opacity="0.2"/>
      <circle r="110" opacity="0.3"/>
      <circle r="85" opacity="0.4"/>
    </g>
    <g fill="none" stroke="#4a90e2" stroke-width="2">
      <path d="M0,-130L0,-100M0,130L0,100M130,0L100,0M-130,0L-100,0"/>
    </g>
    <g fill="#4a90e2">
      <circle cx="0" cy="-130" r="9"/>
      <circle cx="0" cy="130" r="9"/>
      <circle cx="130" cy="0" r="9"/>
      <circle cx="-130" cy="0" r="9"/>
    </g>
    <g fill="#2c3e50">
      <rect x="-60" y="-80" width="120" height="160" rx="10"/>
      <rect x="-50" y="-70" width="100" height="20" rx="5" opacity="0.5"/>
      <rect x="-50" y="-40" width="100" height="10" rx="5" opacity="0.3"/>
      <rect x="-50" y="-20" width="80" height="10" rx="5" opacity="0.3"/>
      <rect x="-50" y="0" width="90" height="10" rx="5" opacity="0.3"/>
      <rect x="-50" y="20" width="70" height="10" rx="5" opacity="0.3"/>
      <rect x="-50" y="40" width="100" height="10" rx="5" opacity="0.3"/>
    </g>
    <g fill="#e74c3c">
      <circle cx="70" cy="-40" r="30"/>
      <path d="M60,-50L80,-30M80,-50L60,-30" stroke="white" stroke-width="4"/>
    </g>
    <g fill="#27ae60">
      <circle cx="70" cy="40" r="30"/>
      <path d="M60,40L70,50L85,35" stroke="white" stroke-width="4" fill="none"/>
    </g>
  </g>
</svg>
